<svg xmlns="http://www.w3.org/2000/svg" width="1060" height="1060" viewBox="0 0 1060 1060" font-family="'Segoe UI','Helvetica Neue',Arial,sans-serif">
<defs>
  <pattern id="hA" width="6" height="6" patternUnits="userSpaceOnUse" patternTransform="rotate(45)">
    <line x1="0" y1="0" x2="0" y2="6" stroke="#8C8C8C" stroke-width="1.2"/>
  </pattern>
  <pattern id="hB" width="5" height="5" patternUnits="userSpaceOnUse">
    <line x1="0" y1="0" x2="0" y2="5" stroke="#6E6E6E" stroke-width="1.1"/>
    <line x1="0" y1="0" x2="5" y2="0" stroke="#6E6E6E" stroke-width="1.1"/>
  </pattern>
  <pattern id="hX" width="4" height="4" patternUnits="userSpaceOnUse" patternTransform="rotate(45)">
    <line x1="0" y1="0" x2="0" y2="4" stroke="#EDEDED" stroke-width="1.6"/>
  </pattern>
  <pattern id="dots" width="8" height="8" patternUnits="userSpaceOnUse">
    <circle cx="1.5" cy="1.5" r="1" fill="#D8D8D8"/>
  </pattern>
  <marker id="seta" viewBox="0 0 10 10" refX="9" refY="5" markerWidth="7" markerHeight="7" orient="auto-start-reverse">
    <path d="M 0 0 L 10 5 L 0 10 z" fill="#2A6FB5"/>
  </marker>
</defs>
<rect x="0" y="0" width="1060" height="1060" rx="0" fill="#FFFFFF" stroke="none" stroke-width="1"/>
<text x="60" y="46" font-family="'Segoe UI','Helvetica Neue',Arial,sans-serif" font-size="23" font-weight="800" fill="#1E1E1E" text-anchor="start" letter-spacing="-0.2">Transição de nível</text>
<text x="60" y="68" font-family="'Segoe UI','Helvetica Neue',Arial,sans-serif" font-size="12" font-weight="400" fill="#5A5A5A" text-anchor="start">Sobreposição exibida entre o fim de um nível e o início automático do próximo</text>
<text x="1016" y="46" font-family="'Cascadia Mono','Consolas','DejaVu Sans Mono',monospace" font-size="13" font-weight="700" fill="#2A6FB5" text-anchor="end">WF-12</text>
<text x="1016" y="68" font-family="'Segoe UI','Helvetica Neue',Arial,sans-serif" font-size="10.5" font-weight="400" fill="#8C8C8C" text-anchor="end">Brick Breaker · Projeto Integrador VI-A · wireframe v1</text>
<line x1="60" y1="88" x2="1016" y2="88" stroke="#3A3A3A" stroke-width="1.4"/>
<rect x="48" y="104" width="384" height="824" rx="34" fill="#FBFBFB" stroke="#3A3A3A" stroke-width="2"/>
<rect x="60" y="116" width="360" height="800" rx="4" fill="#FFFFFF" stroke="#C8C8C8" stroke-width="1"/>
<rect x="60" y="116" width="360" height="20" rx="0" fill="url(#dots)" stroke="none" stroke-width="1"/><line x1="60" y1="136" x2="420" y2="136" stroke="#C8C8C8" stroke-width="1" stroke-dasharray="4 3"/><text x="240" y="130" font-family="'Segoe UI','Helvetica Neue',Arial,sans-serif" font-size="8.5" font-weight="400" fill="#8C8C8C" text-anchor="middle">status bar oculta — immersive sticky (requisito a)</text>
<g opacity="0.22"><rect x="72" y="204" width="39.38" height="18" rx="2" fill="#F4F4F4" stroke="none" stroke-width="1"/>
<rect x="72" y="204" width="39.38" height="18" rx="2" fill="none" stroke="#9A9A9A" stroke-width="1.1"/>
<rect x="114.38" y="204" width="39.38" height="18" rx="2" fill="#F4F4F4" stroke="none" stroke-width="1"/>
<rect x="114.38" y="204" width="39.38" height="18" rx="2" fill="none" stroke="#9A9A9A" stroke-width="1.1"/>
<rect x="156.75" y="204" width="39.38" height="18" rx="2" fill="#F4F4F4" stroke="none" stroke-width="1"/>
<rect x="156.75" y="204" width="39.38" height="18" rx="2" fill="none" stroke="#9A9A9A" stroke-width="1.1"/>
<rect x="199.13" y="204" width="39.38" height="18" rx="2" fill="#F4F4F4" stroke="none" stroke-width="1"/>
<rect x="199.13" y="204" width="39.38" height="18" rx="2" fill="none" stroke="#9A9A9A" stroke-width="1.1"/>
<rect x="241.5" y="204" width="39.38" height="18" rx="2" fill="#F4F4F4" stroke="none" stroke-width="1"/>
<rect x="241.5" y="204" width="39.38" height="18" rx="2" fill="none" stroke="#9A9A9A" stroke-width="1.1"/>
<rect x="283.88" y="204" width="39.38" height="18" rx="2" fill="#F4F4F4" stroke="none" stroke-width="1"/>
<rect x="283.88" y="204" width="39.38" height="18" rx="2" fill="none" stroke="#9A9A9A" stroke-width="1.1"/>
<rect x="326.25" y="204" width="39.38" height="18" rx="2" fill="#F4F4F4" stroke="none" stroke-width="1"/>
<rect x="326.25" y="204" width="39.38" height="18" rx="2" fill="none" stroke="#9A9A9A" stroke-width="1.1"/>
<rect x="368.63" y="204" width="39.38" height="18" rx="2" fill="#F4F4F4" stroke="none" stroke-width="1"/>
<rect x="368.63" y="204" width="39.38" height="18" rx="2" fill="none" stroke="#9A9A9A" stroke-width="1.1"/>
<rect x="72" y="225" width="39.38" height="18" rx="2" fill="#F4F4F4" stroke="none" stroke-width="1"/>
<rect x="72" y="225" width="39.38" height="18" rx="2" fill="none" stroke="#9A9A9A" stroke-width="1.1"/>
<rect x="114.38" y="225" width="39.38" height="18" rx="2" fill="#F4F4F4" stroke="none" stroke-width="1"/>
<rect x="114.38" y="225" width="39.38" height="18" rx="2" fill="none" stroke="#9A9A9A" stroke-width="1.1"/>
<rect x="156.75" y="225" width="39.38" height="18" rx="2" fill="#F4F4F4" stroke="none" stroke-width="1"/>
<rect x="156.75" y="225" width="39.38" height="18" rx="2" fill="none" stroke="#9A9A9A" stroke-width="1.1"/>
<rect x="199.13" y="225" width="39.38" height="18" rx="2" fill="#F4F4F4" stroke="none" stroke-width="1"/>
<rect x="199.13" y="225" width="39.38" height="18" rx="2" fill="none" stroke="#9A9A9A" stroke-width="1.1"/>
<rect x="241.5" y="225" width="39.38" height="18" rx="2" fill="#F4F4F4" stroke="none" stroke-width="1"/>
<rect x="241.5" y="225" width="39.38" height="18" rx="2" fill="none" stroke="#9A9A9A" stroke-width="1.1"/>
<rect x="283.88" y="225" width="39.38" height="18" rx="2" fill="#F4F4F4" stroke="none" stroke-width="1"/>
<rect x="283.88" y="225" width="39.38" height="18" rx="2" fill="none" stroke="#9A9A9A" stroke-width="1.1"/>
<rect x="326.25" y="225" width="39.38" height="18" rx="2" fill="#F4F4F4" stroke="none" stroke-width="1"/>
<rect x="326.25" y="225" width="39.38" height="18" rx="2" fill="none" stroke="#9A9A9A" stroke-width="1.1"/>
<rect x="368.63" y="225" width="39.38" height="18" rx="2" fill="#F4F4F4" stroke="none" stroke-width="1"/>
<rect x="368.63" y="225" width="39.38" height="18" rx="2" fill="none" stroke="#9A9A9A" stroke-width="1.1"/>
<rect x="72" y="246" width="39.38" height="18" rx="2" fill="#F4F4F4" stroke="none" stroke-width="1"/>
<rect x="72" y="246" width="39.38" height="18" rx="2" fill="none" stroke="#9A9A9A" stroke-width="1.1"/>
<rect x="114.38" y="246" width="39.38" height="18" rx="2" fill="#F4F4F4" stroke="none" stroke-width="1"/>
<rect x="114.38" y="246" width="39.38" height="18" rx="2" fill="none" stroke="#9A9A9A" stroke-width="1.1"/>
<rect x="156.75" y="246" width="39.38" height="18" rx="2" fill="#F4F4F4" stroke="none" stroke-width="1"/>
<rect x="156.75" y="246" width="39.38" height="18" rx="2" fill="none" stroke="#9A9A9A" stroke-width="1.1"/>
<rect x="199.13" y="246" width="39.38" height="18" rx="2" fill="#F4F4F4" stroke="none" stroke-width="1"/>
<rect x="199.13" y="246" width="39.38" height="18" rx="2" fill="none" stroke="#9A9A9A" stroke-width="1.1"/>
<rect x="241.5" y="246" width="39.38" height="18" rx="2" fill="#F4F4F4" stroke="none" stroke-width="1"/>
<rect x="241.5" y="246" width="39.38" height="18" rx="2" fill="none" stroke="#9A9A9A" stroke-width="1.1"/>
<rect x="283.88" y="246" width="39.38" height="18" rx="2" fill="#F4F4F4" stroke="none" stroke-width="1"/>
<rect x="283.88" y="246" width="39.38" height="18" rx="2" fill="none" stroke="#9A9A9A" stroke-width="1.1"/>
<rect x="326.25" y="246" width="39.38" height="18" rx="2" fill="#F4F4F4" stroke="none" stroke-width="1"/>
<rect x="326.25" y="246" width="39.38" height="18" rx="2" fill="none" stroke="#9A9A9A" stroke-width="1.1"/>
<rect x="368.63" y="246" width="39.38" height="18" rx="2" fill="#F4F4F4" stroke="none" stroke-width="1"/>
<rect x="368.63" y="246" width="39.38" height="18" rx="2" fill="none" stroke="#9A9A9A" stroke-width="1.1"/>
<rect x="72" y="267" width="39.38" height="18" rx="2" fill="#F4F4F4" stroke="none" stroke-width="1"/>
<rect x="72" y="267" width="39.38" height="18" rx="2" fill="none" stroke="#9A9A9A" stroke-width="1.1"/>
<rect x="114.38" y="267" width="39.38" height="18" rx="2" fill="#F4F4F4" stroke="none" stroke-width="1"/>
<rect x="114.38" y="267" width="39.38" height="18" rx="2" fill="none" stroke="#9A9A9A" stroke-width="1.1"/>
<rect x="156.75" y="267" width="39.38" height="18" rx="2" fill="#F4F4F4" stroke="none" stroke-width="1"/>
<rect x="156.75" y="267" width="39.38" height="18" rx="2" fill="none" stroke="#9A9A9A" stroke-width="1.1"/>
<rect x="199.13" y="267" width="39.38" height="18" rx="2" fill="#F4F4F4" stroke="none" stroke-width="1"/>
<rect x="199.13" y="267" width="39.38" height="18" rx="2" fill="none" stroke="#9A9A9A" stroke-width="1.1"/>
<rect x="241.5" y="267" width="39.38" height="18" rx="2" fill="#F4F4F4" stroke="none" stroke-width="1"/>
<rect x="241.5" y="267" width="39.38" height="18" rx="2" fill="none" stroke="#9A9A9A" stroke-width="1.1"/>
<rect x="283.88" y="267" width="39.38" height="18" rx="2" fill="#F4F4F4" stroke="none" stroke-width="1"/>
<rect x="283.88" y="267" width="39.38" height="18" rx="2" fill="none" stroke="#9A9A9A" stroke-width="1.1"/>
<rect x="326.25" y="267" width="39.38" height="18" rx="2" fill="#F4F4F4" stroke="none" stroke-width="1"/>
<rect x="326.25" y="267" width="39.38" height="18" rx="2" fill="none" stroke="#9A9A9A" stroke-width="1.1"/>
<rect x="368.63" y="267" width="39.38" height="18" rx="2" fill="#F4F4F4" stroke="none" stroke-width="1"/>
<rect x="368.63" y="267" width="39.38" height="18" rx="2" fill="none" stroke="#9A9A9A" stroke-width="1.1"/>
<rect x="72" y="288" width="39.38" height="18" rx="2" fill="#F4F4F4" stroke="none" stroke-width="1"/>
<rect x="72" y="288" width="39.38" height="18" rx="2" fill="none" stroke="#9A9A9A" stroke-width="1.1"/>
<rect x="114.38" y="288" width="39.38" height="18" rx="2" fill="#F4F4F4" stroke="none" stroke-width="1"/>
<rect x="114.38" y="288" width="39.38" height="18" rx="2" fill="none" stroke="#9A9A9A" stroke-width="1.1"/>
<rect x="156.75" y="288" width="39.38" height="18" rx="2" fill="#F4F4F4" stroke="none" stroke-width="1"/>
<rect x="156.75" y="288" width="39.38" height="18" rx="2" fill="none" stroke="#9A9A9A" stroke-width="1.1"/>
<rect x="199.13" y="288" width="39.38" height="18" rx="2" fill="#F4F4F4" stroke="none" stroke-width="1"/>
<rect x="199.13" y="288" width="39.38" height="18" rx="2" fill="none" stroke="#9A9A9A" stroke-width="1.1"/>
<rect x="241.5" y="288" width="39.38" height="18" rx="2" fill="#F4F4F4" stroke="none" stroke-width="1"/>
<rect x="241.5" y="288" width="39.38" height="18" rx="2" fill="none" stroke="#9A9A9A" stroke-width="1.1"/>
<rect x="283.88" y="288" width="39.38" height="18" rx="2" fill="#F4F4F4" stroke="none" stroke-width="1"/>
<rect x="283.88" y="288" width="39.38" height="18" rx="2" fill="none" stroke="#9A9A9A" stroke-width="1.1"/>
<rect x="326.25" y="288" width="39.38" height="18" rx="2" fill="#F4F4F4" stroke="none" stroke-width="1"/>
<rect x="326.25" y="288" width="39.38" height="18" rx="2" fill="none" stroke="#9A9A9A" stroke-width="1.1"/>
<rect x="368.63" y="288" width="39.38" height="18" rx="2" fill="#F4F4F4" stroke="none" stroke-width="1"/>
<rect x="368.63" y="288" width="39.38" height="18" rx="2" fill="none" stroke="#9A9A9A" stroke-width="1.1"/></g>
<rect x="60" y="116" width="360" height="800" rx="0" fill="#1E1E1E" stroke="none" stroke-width="1" opacity="0.55"/>
<text x="240" y="416" font-family="'Segoe UI','Helvetica Neue',Arial,sans-serif" font-size="40" font-weight="800" fill="#FFFFFF" text-anchor="middle" letter-spacing="4">NÍVEL 2</text>
<text x="240" y="450" font-family="'Segoe UI','Helvetica Neue',Arial,sans-serif" font-size="14" font-weight="700" fill="#E0E0E0" text-anchor="middle" letter-spacing="3">PIRÂMIDE</text>
<line x1="180" y1="472" x2="300" y2="472" stroke="#9A9A9A" stroke-width="1"/>
<text x="240" y="502" font-family="'Segoe UI','Helvetica Neue',Arial,sans-serif" font-size="12" font-weight="400" fill="#D0D0D0" text-anchor="middle">28 tijolos · 3 vidas restantes</text>
<circle cx="240" cy="586" r="34" fill="none" stroke="#FFFFFF" stroke-width="2"/>
<text x="240" y="600" font-family="'Segoe UI','Helvetica Neue',Arial,sans-serif" font-size="30" font-weight="800" fill="#FFFFFF" text-anchor="middle">3</text>
<text x="240" y="658" font-family="'Segoe UI','Helvetica Neue',Arial,sans-serif" font-size="11.5" font-weight="400" fill="#C0C0C0" text-anchor="middle">preparando…</text>
<rect x="84" y="756" width="312" height="44" rx="8" fill="none" stroke="#8A8A8A" stroke-width="1.2" stroke-dasharray="5 4"/>
<text x="240" y="783" font-family="'Segoe UI','Helvetica Neue',Arial,sans-serif" font-size="11" font-weight="600" fill="#D8D8D8" text-anchor="middle">toque para começar imediatamente</text>
<circle cx="100" cy="416" r="11" fill="#2A6FB5" stroke="none" stroke-width="1"/><text x="100" y="420" font-family="'Segoe UI','Helvetica Neue',Arial,sans-serif" font-size="11" font-weight="700" fill="#fff" text-anchor="middle">1</text>
<circle cx="100" cy="586" r="11" fill="#2A6FB5" stroke="none" stroke-width="1"/><text x="100" y="590" font-family="'Segoe UI','Helvetica Neue',Arial,sans-serif" font-size="11" font-weight="700" fill="#fff" text-anchor="middle">2</text>
<circle cx="100" cy="778" r="11" fill="#2A6FB5" stroke="none" stroke-width="1"/><text x="100" y="782" font-family="'Segoe UI','Helvetica Neue',Arial,sans-serif" font-size="11" font-weight="700" fill="#fff" text-anchor="middle">3</text>
<rect x="60" y="116" width="360" height="800" rx="4" fill="none" stroke="#3A3A3A" stroke-width="1.2"/>
<text x="240" y="950" font-family="'Segoe UI','Helvetica Neue',Arial,sans-serif" font-size="10" font-weight="400" fill="#8C8C8C" text-anchor="middle">360 × 800 dp  ·  1 px = 1 dp  ·  1080 × 2400 px @ xxhdpi</text>
<text x="476" y="126" font-family="'Segoe UI','Helvetica Neue',Arial,sans-serif" font-size="10" font-weight="700" fill="#8C8C8C" text-anchor="start" letter-spacing="1.4">ANOTAÇÕES DE COMPORTAMENTO E ESPECIFICAÇÃO</text>
<line x1="476" y1="134" x2="1016" y2="134" stroke="#C8C8C8" stroke-width="1"/>
<text x="476" y="166" font-family="'Segoe UI','Helvetica Neue',Arial,sans-serif" font-size="11" font-weight="700" fill="#2A6FB5" text-anchor="start" letter-spacing="1.1">AVANÇO AUTOMÁTICO (requisito c)</text>
<line x1="476" y1="171" x2="1016" y2="171" stroke="#E3EDF7" stroke-width="2"/>
<circle cx="486" cy="184" r="11" fill="#2A6FB5" stroke="none" stroke-width="1"/><text x="486" y="188" font-family="'Segoe UI','Helvetica Neue',Arial,sans-serif" font-size="11" font-weight="700" fill="#fff" text-anchor="middle">1</text>
<text x="504" y="188" font-family="'Segoe UI','Helvetica Neue',Arial,sans-serif" font-size="12" font-weight="700" fill="#1E1E1E" text-anchor="start">Sem intervenção do usuário</text>
<text x="504" y="203" font-family="'Segoe UI','Helvetica Neue',Arial,sans-serif" font-size="11" font-weight="400" fill="#5A5A5A" text-anchor="start">Assim que o último tijolo destrutível do nível anterior é destruído, esta</text>
<text x="504" y="216" font-family="'Segoe UI','Helvetica Neue',Arial,sans-serif" font-size="11" font-weight="400" fill="#5A5A5A" text-anchor="start">sobreposição aparece e, ao fim da contagem, o próximo nível começa</text>
<text x="504" y="229" font-family="'Segoe UI','Helvetica Neue',Arial,sans-serif" font-size="11" font-weight="400" fill="#5A5A5A" text-anchor="start">sozinho. Em nenhum momento se volta ao menu.</text>
<circle cx="486" cy="248" r="11" fill="#2A6FB5" stroke="none" stroke-width="1"/><text x="486" y="252" font-family="'Segoe UI','Helvetica Neue',Arial,sans-serif" font-size="11" font-weight="700" fill="#fff" text-anchor="middle">2</text>
<text x="504" y="252" font-family="'Segoe UI','Helvetica Neue',Arial,sans-serif" font-size="12" font-weight="700" fill="#1E1E1E" text-anchor="start">Contagem regressiva de 3 s</text>
<text x="504" y="267" font-family="'Segoe UI','Helvetica Neue',Arial,sans-serif" font-size="11" font-weight="400" fill="#5A5A5A" text-anchor="start">Dá tempo de o jogador reposicionar o polegar e ler o layout novo da</text>
<text x="504" y="280" font-family="'Segoe UI','Helvetica Neue',Arial,sans-serif" font-size="11" font-weight="400" fill="#5A5A5A" text-anchor="start">parede, que já está desenhado ao fundo com opacidade reduzida.</text>
<circle cx="486" cy="299" r="11" fill="#2A6FB5" stroke="none" stroke-width="1"/><text x="486" y="303" font-family="'Segoe UI','Helvetica Neue',Arial,sans-serif" font-size="11" font-weight="700" fill="#fff" text-anchor="middle">3</text>
<text x="504" y="303" font-family="'Segoe UI','Helvetica Neue',Arial,sans-serif" font-size="12" font-weight="700" fill="#1E1E1E" text-anchor="start">Pular a contagem</text>
<text x="504" y="318" font-family="'Segoe UI','Helvetica Neue',Arial,sans-serif" font-size="11" font-weight="400" fill="#5A5A5A" text-anchor="start">Um toque em qualquer ponto encerra a contagem e lança a bola</text>
<text x="504" y="331" font-family="'Segoe UI','Helvetica Neue',Arial,sans-serif" font-size="11" font-weight="400" fill="#5A5A5A" text-anchor="start">imediatamente.</text>
<text x="476" y="360" font-family="'Segoe UI','Helvetica Neue',Arial,sans-serif" font-size="11" font-weight="700" fill="#2A6FB5" text-anchor="start" letter-spacing="1.1">SOM (requisito e)</text>
<line x1="476" y1="365" x2="1016" y2="365" stroke="#E3EDF7" stroke-width="2"/>
<circle cx="486" cy="378" r="11" fill="#2A6FB5" stroke="none" stroke-width="1"/><text x="486" y="382" font-family="'Segoe UI','Helvetica Neue',Arial,sans-serif" font-size="11" font-weight="700" fill="#fff" text-anchor="middle">4</text>
<text x="504" y="382" font-family="'Segoe UI','Helvetica Neue',Arial,sans-serif" font-size="12" font-weight="700" fill="#1E1E1E" text-anchor="start">Som de início de fase</text>
<text x="504" y="397" font-family="'Segoe UI','Helvetica Neue',Arial,sans-serif" font-size="11" font-weight="400" fill="#5A5A5A" text-anchor="start">Disparado uma única vez no primeiro frame desta sobreposição, incluindo o</text>
<text x="504" y="410" font-family="'Segoe UI','Helvetica Neue',Arial,sans-serif" font-size="11" font-weight="400" fill="#5A5A5A" text-anchor="start">início do nível 1 e todo reinício de nível pedido no diálogo WF-11. É o</text>
<text x="504" y="423" font-family="'Segoe UI','Helvetica Neue',Arial,sans-serif" font-size="11" font-weight="400" fill="#5A5A5A" text-anchor="start">primeiro dos dois sons exigidos pelo enunciado.</text>
<text x="476" y="452" font-family="'Segoe UI','Helvetica Neue',Arial,sans-serif" font-size="11" font-weight="700" fill="#2A6FB5" text-anchor="start" letter-spacing="1.1">ESTADO</text>
<line x1="476" y1="457" x2="1016" y2="457" stroke="#E3EDF7" stroke-width="2"/>
<circle cx="486" cy="470" r="11" fill="#2A6FB5" stroke="none" stroke-width="1"/><text x="486" y="474" font-family="'Segoe UI','Helvetica Neue',Arial,sans-serif" font-size="11" font-weight="700" fill="#fff" text-anchor="middle">5</text>
<text x="504" y="474" font-family="'Segoe UI','Helvetica Neue',Arial,sans-serif" font-size="12" font-weight="700" fill="#1E1E1E" text-anchor="start">O que é reiniciado</text>
<text x="504" y="489" font-family="'Segoe UI','Helvetica Neue',Arial,sans-serif" font-size="11" font-weight="400" fill="#5A5A5A" text-anchor="start">Parede reconstruída pelo método do novo nível, bola recolocada sobre o</text>
<text x="504" y="502" font-family="'Segoe UI','Helvetica Neue',Arial,sans-serif" font-size="11" font-weight="400" fill="#5A5A5A" text-anchor="start">paddle, velocidade base aumentada em 8%. Pontuação e vidas são cumulativas</text>
<text x="504" y="515" font-family="'Segoe UI','Helvetica Neue',Arial,sans-serif" font-size="11" font-weight="400" fill="#5A5A5A" text-anchor="start">e não zeram entre níveis.</text>
<line x1="60" y1="994" x2="1016" y2="994" stroke="#C8C8C8" stroke-width="1"/>
<text x="60" y="1016" font-family="'Segoe UI','Helvetica Neue',Arial,sans-serif" font-size="9.5" font-weight="700" fill="#8C8C8C" text-anchor="start" letter-spacing="1.2">REQUISITO ATENDIDO</text>
<text x="60" y="1034" font-family="'Segoe UI','Helvetica Neue',Arial,sans-serif" font-size="12" font-weight="600" fill="#1E1E1E" text-anchor="start">(c) ao final do nível o próximo inicia automaticamente · (e) som de início de fase</text>
<text x="1016" y="1034" font-family="'Segoe UI','Helvetica Neue',Arial,sans-serif" font-size="10.5" font-weight="400" fill="#8C8C8C" text-anchor="end">sobreposição — não é uma tela nova</text>
</svg>
